<svg xmlns="http://www.w3.org/2000/svg" viewBox="0 0 129.22 153.13"><defs><style>.cls-1{fill:#446280}.cls-2{fill:#ff3d00}.cls-3{fill:#dd2c00}.snow{fill:#446280;fill-opacity:0;animation-name:snowing;animation-duration:3s;animation-iteration-count:infinite;animation-timing-function:ease-out}.snow:nth-child(2n){animation-delay:1.5s}.snow:nth-child(3n){animation-delay:2.3s;animation-duration:3.3s}.snow:nth-child(4n){animation-delay:.8s;animation-duration:3.2s}.snow:nth-child(5n){animation-delay:2.8s}@keyframes snowing{0%{fill-opacity:1}100%{fill-opacity:0;transform:translateY(50px)}}</style></defs><title>CodeGrade_christmas_dark</title><circle class="snow" cx="26%" cy="56" r="2"/><circle class="snow" cx="76%" cy="47" r="1"/><circle class="snow" cx="55%" cy="47" r="1"/><circle class="snow" cx="61%" cy="4" r="3"/><circle class="snow" cx="69%" cy="95" r="2"/><circle class="snow" cx="8%" cy="27" r="3"/><circle class="snow" cx="44%" cy="38" r="3"/><circle class="snow" cx="44%" cy="16" r="3"/><circle class="snow" cx="31%" cy="72" r="3"/><circle class="snow" cx="65%" cy="75" r="3"/><circle class="snow" cx="57%" cy="56" r="2"/><circle class="snow" cx="22%" cy="80" r="1"/><circle class="snow" cx="91%" cy="5" r="2"/><circle class="snow" cx="92%" cy="19" r="3"/><circle class="snow" cx="30%" cy="42" r="1"/><circle class="snow" cx="6%" cy="31" r="1"/><circle class="snow" cx="3%" cy="17" r="3"/><circle class="snow" cx="90%" cy="19" r="3"/><circle class="snow" cx="57%" cy="11" r="2"/><circle class="snow" cx="60%" cy="12" r="3"/><circle class="snow" cx="15%" cy="98" r="2"/><circle class="snow" cx="26%" cy="64" r="2"/><circle class="snow" cx="57%" cy="40" r="3"/><circle class="snow" cx="34%" cy="90" r="2"/><circle class="snow" cx="16%" cy="3" r="1"/><circle class="snow" cx="70%" cy="39" r="3"/><circle class="snow" cx="13%" cy="4" r="3"/><circle class="snow" cx="20%" cy="22" r="3"/><circle class="snow" cx="53%" cy="8" r="3"/><circle class="snow" cx="23%" cy="40" r="1"/><circle class="snow" cx="9%" cy="81" r="2"/><circle class="snow" cx="80%" cy="30" r="3"/><circle class="snow" cx="77%" cy="39" r="1"/><circle class="snow" cx="16%" cy="93" r="3"/><circle class="snow" cx="39%" cy="63" r="2"/><circle class="snow" cx="37%" cy="85" r="2"/><circle class="snow" cx="64%" cy="11" r="1"/><circle class="snow" cx="25%" cy="23" r="2"/><circle class="snow" cx="83%" cy="15" r="2"/><circle class="snow" cx="89%" cy="95" r="2"/><circle class="snow" cx="35%" cy="62" r="1"/><circle class="snow" cx="58%" cy="42" r="3"/><circle class="snow" cx="84%" cy="92" r="3"/><circle class="snow" cx="100%" cy="78" r="1"/><circle class="snow" cx="18%" cy="86" r="3"/><circle class="snow" cx="70%" cy="69" r="3"/><circle class="snow" cx="45%" cy="100" r="1"/><circle class="snow" cx="74%" cy="94" r="1"/><circle class="snow" cx="30%" cy="100" r="2"/><circle class="snow" cx="48%" cy="96" r="1"/><g id="Layer_2" data-name="Layer 2"><g id="Layer_1-2" data-name="Layer 1"><g id="Layer_2-2" data-name="Layer 2"><g id="Layer_1-2-2" data-name="Layer 1-2"><path class="cls-1" d="M107.46,83.53a38.43,38.43,0,0,0-8.8-7,18.93,18.93,0,0,0-9.4-2.6,27.42,27.42,0,0,0-20.7,8.8,27,27,0,0,0-5.6,9.2,31.68,31.68,0,0,0,0,21.6,27,27,0,0,0,5.6,9.2,27.42,27.42,0,0,0,20.7,8.8,23.81,23.81,0,0,0,10.4-2.3,22.68,22.68,0,0,0,8.2-6.7l16,17.2a37,37,0,0,1-8.3,6.2,57.53,57.53,0,0,1-9.5,4.2,59.52,59.52,0,0,1-9.2,2.3,49.6,49.6,0,0,1-7.6.7,57.75,57.75,0,0,1-20.4-3.6,48.84,48.84,0,0,1-16.6-10.2,48.3,48.3,0,0,1-11.1-15.9,50.78,50.78,0,0,1-4.1-20.7A50.56,50.56,0,0,1,41.16,82a48.3,48.3,0,0,1,11.1-15.9c4.66-4.4,10.91-1.54,17.31-3.94s15.3-1.14,24-4c5.82-1.92,8-4.69,14.19-2.36a42.09,42.09,0,0,1,16.3,11.1Z"/></g></g><g id="surface1"><path class="cls-2" d="M36,77.1l86.11-12.69s-.68-1.13-1.9-3l1.17.62S99.47-10.23,44,1.23C14.82,7.27,10.47,44,10.47,44s5.78-5.74,13-11.52c4.14-2.36,8.57-4.41,10.32-3.54C45.35,34.64,29.45,55.43,36,77.1Z"/><path class="cls-3" d="M36,77.1c1.43,4.72,6.34,6.78,13.12,7.12,3.08-2.67,5-6.17,4.39-10.74-6.4-21.06,3-28.53-2.49-48.83-3.5-8.95-17.08-.54-27.59,7.84,4.15-2.36,8.59-4.42,10.34-3.55C45.35,34.64,29.45,55.43,36,77.1Z"/><path class="cls-1" d="M126.54,68.63,36.05,87.34,30.92,70.48l90.49-18.71Z"/><path class="cls-1" d="M110.47,51.47c2.41-.5,4.87.72,5.47,2.71s-.86,4-3.28,4.52S107.79,58,107.18,56,108.05,52,110.47,51.47Z"/><path class="cls-1" d="M119.22,49.66c2.42-.5,4.87.72,5.48,2.71s-.87,4-3.28,4.52-4.87-.71-5.48-2.71S116.8,50.16,119.22,49.66Z"/><path class="cls-1" d="M101.71,53.29c2.42-.5,4.87.71,5.47,2.7s-.86,4-3.28,4.52S99,59.8,98.43,57.8,99.29,53.78,101.71,53.29Z"/><path class="cls-1" d="M93,55.1c2.42-.5,4.87.71,5.48,2.7s-.87,4-3.28,4.52-4.87-.71-5.48-2.71S90.53,55.6,93,55.1Z"/><path class="cls-1" d="M84.19,56.91c2.42-.5,4.87.71,5.48,2.7s-.86,4-3.28,4.52-4.87-.71-5.48-2.71S81.78,57.41,84.19,56.91Z"/><path class="cls-1" d="M114.86,65.92c2.41-.5,4.87.71,5.47,2.71s-.86,4-3.28,4.52-4.87-.72-5.48-2.71S112.44,66.42,114.86,65.92Z"/><path class="cls-1" d="M106.1,67.73c2.42-.5,4.87.72,5.47,2.71s-.86,4-3.28,4.52-4.87-.72-5.47-2.71S103.68,68.23,106.1,67.73Z"/><path class="cls-1" d="M97.34,69.54c2.42-.5,4.87.72,5.48,2.71s-.87,4-3.28,4.52-4.87-.71-5.48-2.71S94.92,70,97.34,69.54Z"/><path class="cls-1" d="M88.58,71.35c2.42-.5,4.87.72,5.48,2.71s-.86,4-3.28,4.52-4.87-.71-5.48-2.71S86.17,71.85,88.58,71.35Z"/><path class="cls-1" d="M75.44,58.72c2.41-.5,4.87.71,5.47,2.7s-.86,4-3.28,4.52-4.87-.71-5.47-2.71S73,59.22,75.44,58.72Z"/><path class="cls-1" d="M79.83,73.17c2.41-.5,4.87.71,5.47,2.7s-.86,4-3.28,4.52-4.87-.71-5.47-2.71S77.41,73.67,79.83,73.17Z"/><path class="cls-1" d="M71.07,75c2.42-.5,4.87.71,5.48,2.7s-.87,4-3.28,4.52-4.87-.71-5.48-2.71S68.65,75.48,71.07,75Z"/><path class="cls-1" d="M33.85,75c2.41-.5,4.87.71,5.47,2.7s-.86,4-3.28,4.52-4.87-.71-5.47-2.71S31.43,75.5,33.85,75Z"/><path class="cls-1" d="M66.68,60.53c2.42-.5,4.87.71,5.48,2.7s-.87,4-3.28,4.52S64,67,63.4,65.05,64.26,61,66.68,60.53Z"/><path class="cls-1" d="M62.31,76.79c2.42-.5,4.87.71,5.48,2.7s-.86,4-3.28,4.52S59.64,83.3,59,81.3,59.9,77.29,62.31,76.79Z"/><path class="cls-1" d="M57.92,62.34c2.42-.5,4.87.71,5.48,2.71s-.86,4-3.28,4.51-4.87-.71-5.48-2.7S55.51,62.84,57.92,62.34Z"/><path class="cls-1" d="M53.56,78.6c2.41-.5,4.87.71,5.47,2.7s-.86,4-3.28,4.52-4.87-.71-5.47-2.71S51.14,79.1,53.56,78.6Z"/><path class="cls-1" d="M49.17,64.15c2.41-.5,4.87.71,5.47,2.71s-.86,4-3.28,4.51-4.87-.71-5.47-2.7S46.75,64.65,49.17,64.15Z"/><path class="cls-1" d="M44.8,80.41c2.42-.5,4.87.71,5.48,2.7s-.87,4-3.29,4.52-4.87-.71-5.47-2.7S42.38,80.91,44.8,80.41Z"/><path class="cls-1" d="M40.41,66c2.42-.5,4.87.71,5.48,2.71s-.87,4-3.29,4.51-4.87-.71-5.47-2.7S38,66.46,40.41,66Z"/><path class="cls-1" d="M36,82.22c2.42-.5,4.87.71,5.48,2.71s-.86,4-3.28,4.51-4.87-.71-5.48-2.7S33.63,82.72,36,82.22Z"/><path class="cls-1" d="M31.65,67.77c2.42-.5,4.87.71,5.48,2.71s-.87,4-3.28,4.52-4.87-.72-5.48-2.71S29.24,68.27,31.65,67.77Z"/><path class="cls-1" d="M121.42,56.89c2.41-.5,4.87.71,5.47,2.7s-.86,4-3.28,4.52-4.87-.71-5.47-2.71S119,57.39,121.42,56.89Z"/><path class="cls-1" d="M123.61,64.11c2.42-.5,4.87.71,5.48,2.71s-.87,4-3.28,4.52-4.87-.72-5.48-2.71S121.19,64.61,123.61,64.11Z"/><path class="cls-1" d="M17.9,49.06c5.79-1.2,9.31-6,7.87-10.74s-7.29-7.61-13.09-6.42-9.3,6-7.86,10.75S12.12,50.26,17.9,49.06Z"/><path class="cls-1" d="M21,52.06a5.14,5.14,0,0,1-4.54-1.16,5.1,5.1,0,0,1-5.09,1.75A4,4,0,0,1,8,49.07,5.08,5.08,0,0,1,2.71,47.7,3.18,3.18,0,0,1,3,43.2,3.75,3.75,0,0,1,0,39.36v0A4.15,4.15,0,0,1,3.76,36a3.24,3.24,0,0,1,.77-4.46A5.28,5.28,0,0,1,10,31a4.32,4.32,0,0,1,4.12-3,4.67,4.67,0,0,1,4.65,2.45,5.33,5.33,0,0,1,5.48-.15,3.38,3.38,0,0,1,1.62,4.36,4.4,4.4,0,0,1,4.31,2.78,3.47,3.47,0,0,1-1.91,4,3.23,3.23,0,0,1,1,4.23A4.85,4.85,0,0,1,24.4,47.8a3.62,3.62,0,0,1-2.56,4A5.62,5.62,0,0,1,21,52.06Zm-2.2-7.23a5.58,5.58,0,0,1,1.82,0A3.23,3.23,0,0,1,21,42.57,4.07,4.07,0,0,1,22.61,41a3.62,3.62,0,0,1-1.26-1.78A3.06,3.06,0,0,1,21.52,37a5.46,5.46,0,0,1-2.59-.7,3.79,3.79,0,0,1-1.59-1.77,5.39,5.39,0,0,1-2.54.84,5.18,5.18,0,0,1-2.62-.51,3.89,3.89,0,0,1-1.27,2,5.06,5.06,0,0,1-2.42,1A3.24,3.24,0,0,1,9.07,40a3.28,3.28,0,0,1-1,2,4.54,4.54,0,0,1,2.13,1.35A3.15,3.15,0,0,1,11,45.53a5.42,5.42,0,0,1,2.69-.09A4.66,4.66,0,0,1,16,46.6a4.41,4.41,0,0,1,2-1.5v0A6.22,6.22,0,0,1,18.81,44.83Z"/></g></g></g></svg>
