<svg id="Layer_1" data-name="Layer 1" xmlns="http://www.w3.org/2000/svg" viewBox="0 0 1010.33 199.2"><defs><style>.cls-1{fill:#446280;}.cls-2{fill:#ff3d00;}.cls-3{fill:#dd2c00;}</style></defs><title>codegrade-blue_christmas</title><path class="cls-1" d="M597,144.32q-2.4,17.19-9,27.8t-14.8,16.4a47.63,47.63,0,0,1-17.1,7.8,74,74,0,0,1-15.9,2,63.72,63.72,0,0,1-25.7-5.1q-11.7-5.1-17.5-14.3l10.8-8.8a30.5,30.5,0,0,0,14,13.2,50.69,50.69,0,0,0,35.6,1.8,37.06,37.06,0,0,0,19-14.9,47.46,47.46,0,0,0,4.7-9.4,58.83,58.83,0,0,0,2.5-8.9q.79-4.2,1.2-6.8l1.8-12.8h-.4a45.75,45.75,0,0,1-15.9,13.2,47.08,47.08,0,0,1-21.5,4.8,46.55,46.55,0,0,1-18.7-3.7,40.11,40.11,0,0,1-22.8-25.3,41.22,41.22,0,0,1-1.3-18.4,49.31,49.31,0,0,1,6.5-18.4,58.41,58.41,0,0,1,12.7-15,62,62,0,0,1,17.1-10.2,52.55,52.55,0,0,1,19.7-3.8q12,0,20.2,4.8a29.9,29.9,0,0,1,12.2,13.2h.4l2.2-15.6h12Zm-5.8-41.4a35,35,0,0,0-.9-14.3,29.53,29.53,0,0,0-6.2-11.6,31.37,31.37,0,0,0-10.5-7.8,32,32,0,0,0-13.8-2.9,38.41,38.41,0,0,0-14.7,2.9,46,46,0,0,0-12.8,7.8,43.2,43.2,0,0,0-9.5,11.6,39.17,39.17,0,0,0-4.8,14.3,35.05,35.05,0,0,0,.9,14.3,29.67,29.67,0,0,0,6.2,11.6,31.64,31.64,0,0,0,10.5,7.8,32.33,32.33,0,0,0,13.8,2.9,38.79,38.79,0,0,0,14.7-2.9,46.66,46.66,0,0,0,12.8-7.8,43.36,43.36,0,0,0,9.5-11.6A39.24,39.24,0,0,0,591.24,102.92Z" transform="translate(0 0.88)"/><path class="cls-1" d="M634.84,83.92q.39-2.61.8-6.3c.26-2.47.5-5,.7-7.5s.4-4.9.6-7.1.36-3.9.5-5.1h12c-.27,3.47-.61,6.8-1,10a29.89,29.89,0,0,0-.4,6.2,51.07,51.07,0,0,1,13.7-13.4,32.34,32.34,0,0,1,18.3-5.2,25.25,25.25,0,0,1,6.8,1l-3,11.8a12.73,12.73,0,0,0-4.4-.8,35.61,35.61,0,0,0-13.8,2.5,31.72,31.72,0,0,0-10.4,6.9,33.28,33.28,0,0,0-7,10.3,48.77,48.77,0,0,0-3.6,12.7l-7,50.4h-12Z" transform="translate(0 0.88)"/><path class="cls-1" d="M769.44,111.52q-1,6.8-1.7,12.2c-.47,3.6-.83,6.93-1.1,10s-.47,5.93-.6,8.6-.2,5.33-.2,8h-11.2a61.77,61.77,0,0,1,0-7.2q.2-3.81.8-7.8H755a41.08,41.08,0,0,1-14.7,13.2q-8.31,4.2-20.1,4.2a44.92,44.92,0,0,1-11.6-1.5,27,27,0,0,1-9.8-4.8,20.26,20.26,0,0,1-6.3-8.5q-2.1-5.21-1.1-12.6,1.39-10.62,7.8-16.8a41.86,41.86,0,0,1,14.7-9.3,68.09,68.09,0,0,1,17.3-4q9-.9,15.8-.9h14l.8-5.6q1.59-12-5-17.2T739,66.32a47.94,47.94,0,0,0-29.8,10.4l-5.8-8.2a52,52,0,0,1,17.8-9.7,62.44,62.44,0,0,1,19.2-3.3q16.8,0,25.7,7.9t6.5,25.5Zm-23-7.6a107.69,107.69,0,0,0-14.9,1,54.32,54.32,0,0,0-13.2,3.4,30.32,30.32,0,0,0-10,6.4,16.53,16.53,0,0,0-4.9,10,13.84,13.84,0,0,0,.8,7.5,13.29,13.29,0,0,0,4.1,5.4,19.34,19.34,0,0,0,6.3,3.2,25.41,25.41,0,0,0,7.4,1.1,41.63,41.63,0,0,0,16.2-2.8,31.32,31.32,0,0,0,17.5-17.5,48.93,48.93,0,0,0,3.1-11.5l.8-6.2Z" transform="translate(0 0.88)"/><path class="cls-1" d="M879,134.12h-.4a37.3,37.3,0,0,1-8.1,8.3,50.89,50.89,0,0,1-10,5.8,53.77,53.77,0,0,1-10.8,3.4,55.74,55.74,0,0,1-10.7,1.1,48.56,48.56,0,0,1-19-3.6A36.81,36.81,0,0,1,806,139a39.38,39.38,0,0,1-7.9-15.4,47.33,47.33,0,0,1-.8-19.5,54.6,54.6,0,0,1,6.3-19.5,57.28,57.28,0,0,1,12.2-15.4,53.19,53.19,0,0,1,16.75-10.1,56.09,56.09,0,0,1,20.1-3.6,49.78,49.78,0,0,1,10.4,1.1,42.31,42.31,0,0,1,9.9,3.4,31.71,31.71,0,0,1,8.3,5.8,27.31,27.31,0,0,1,5.8,8.3h.4L898-.88h12l-21.2,151.2h-12Zm5.4-30a34,34,0,0,0-.8-14.7,30.94,30.94,0,0,0-6.5-12,32.44,32.44,0,0,0-11.1-8.1,35.23,35.23,0,0,0-14.8-3,40.11,40.11,0,0,0-15.6,3A42,42,0,0,0,814,89.42a48.41,48.41,0,0,0-4.7,14.7,38.48,38.48,0,0,0,.4,14.7,30.06,30.06,0,0,0,5.6,12,28,28,0,0,0,10.4,8.1,34.6,34.6,0,0,0,14.8,3,42.18,42.18,0,0,0,15.7-3,47.37,47.37,0,0,0,13.4-8.1,45.35,45.35,0,0,0,9.8-12A43,43,0,0,0,884.44,104.12Z" transform="translate(0 0.88)"/><path class="cls-1" d="M1002.23,132.92a50.51,50.51,0,0,1-19.5,15.2,59.34,59.34,0,0,1-23.3,4.6,45.79,45.79,0,0,1-18.7-3.6,35.84,35.84,0,0,1-13.4-10.1,37.81,37.81,0,0,1-7.4-15.4,52.44,52.44,0,0,1-.5-19.7,56.74,56.74,0,0,1,17.9-34.5,54.56,54.56,0,0,1,16-10.2,49.08,49.08,0,0,1,19.1-3.7q10.61,0,18.21,3.7a33.9,33.9,0,0,1,12.29,9.8,34.31,34.31,0,0,1,6.4,13.9,43.05,43.05,0,0,1,.5,15.8l-1.19,8.4H931a37.06,37.06,0,0,0,.11,9.7,30.18,30.18,0,0,0,3.89,11.5,28.46,28.46,0,0,0,9.3,9.6q6.11,4,16.7,4a43.15,43.15,0,0,0,18.5-4.4,38.56,38.56,0,0,0,14.9-12ZM998,96.32a27.71,27.71,0,0,0-.8-11.6,23.46,23.46,0,0,0-5.4-9.5,27.34,27.34,0,0,0-9.3-6.5,29.75,29.75,0,0,0-12.1-2.4,33.83,33.83,0,0,0-16.9,4,44.62,44.62,0,0,0-11.7,9.2,43.33,43.33,0,0,0-6.9,10.1,27.44,27.44,0,0,0-2.5,6.7Z" transform="translate(0 0.88)"/><path class="cls-1" d="M133.45,102.32a50.71,50.71,0,0,1,4.1-20.7,48.2,48.2,0,0,1,11.1-15.9,48.84,48.84,0,0,1,16.6-10.2,59.6,59.6,0,0,1,40.8,0,47.69,47.69,0,0,1,27.7,26.1,50.74,50.74,0,0,1,4.1,20.7,50.78,50.78,0,0,1-4.1,20.7,47.73,47.73,0,0,1-27.7,26.1,59.6,59.6,0,0,1-40.8,0,49,49,0,0,1-16.6-10.2,48.41,48.41,0,0,1-11.1-15.9A50.78,50.78,0,0,1,133.45,102.32Zm24,0a31.11,31.11,0,0,0,1.9,10.8,27,27,0,0,0,5.6,9.2,28.38,28.38,0,0,0,40.1,1.3c.45-.42.88-.86,1.3-1.3a27.37,27.37,0,0,0,5.64-9.2,31.68,31.68,0,0,0,0-21.6,27.27,27.27,0,0,0-5.6-9.2,28.36,28.36,0,0,0-40.1-1.3c-.45.42-.88.85-1.3,1.3a26.86,26.86,0,0,0-5.6,9.2A31.06,31.06,0,0,0,157.45,102.32Z" transform="translate(0 0.88)"/><path class="cls-1" d="M336.24,135.92h-.4a31,31,0,0,1-14,12.8,45.39,45.39,0,0,1-19,4,48.38,48.38,0,0,1-19.9-3.9,44.7,44.7,0,0,1-14.9-10.7,45.88,45.88,0,0,1-9.4-16,60.09,60.09,0,0,1-3.2-19.8,56.39,56.39,0,0,1,3.4-19.8,49.11,49.11,0,0,1,9.5-16A43.82,43.82,0,0,1,283,55.82a44.93,44.93,0,0,1,18.8-3.9,46.24,46.24,0,0,1,12,1.4,40.61,40.61,0,0,1,9.2,3.6,36.13,36.13,0,0,1,6.8,4.7,33.88,33.88,0,0,1,4.6,4.9h.6V-.88h24v151.2h-22.8Zm-56.8-33.6a31.11,31.11,0,0,0,1.9,10.8,27.21,27.21,0,0,0,5.6,9.2,28.38,28.38,0,0,0,40.1,1.3c.45-.42.88-.86,1.3-1.3a27.24,27.24,0,0,0,5.65-9.2,31.68,31.68,0,0,0,0-21.6,27.11,27.11,0,0,0-5.6-9.2,28.36,28.36,0,0,0-40.1-1.3c-.45.42-.88.85-1.3,1.3a27.11,27.11,0,0,0-5.6,9.2A31.31,31.31,0,0,0,279.44,102.32Z" transform="translate(0 0.88)"/><path class="cls-1" d="M405.44,110.72q1.2,10.8,8.4,16.8a26.32,26.32,0,0,0,17.4,6q9,0,15.1-3.7a42.14,42.14,0,0,0,10.7-9.3l17.2,13q-8.4,10.39-18.8,14.8a55.54,55.54,0,0,1-21.8,4.4,57.75,57.75,0,0,1-20.4-3.6,49.15,49.15,0,0,1-16.6-10.2,48.41,48.41,0,0,1-11.1-15.9,50.78,50.78,0,0,1-4.1-20.7,50.74,50.74,0,0,1,4.1-20.7,48.2,48.2,0,0,1,11.1-15.9,48.84,48.84,0,0,1,16.6-10.2,57.3,57.3,0,0,1,20.4-3.6A46.38,46.38,0,0,1,452,55.42a39.26,39.26,0,0,1,14.2,10.1,46.47,46.47,0,0,1,9.2,16.3,69.1,69.1,0,0,1,3.3,22.3v6.6Zm49.2-18q-.19-10.6-6.6-16.7t-17.8-6.1q-10.8,0-17.1,6.2t-7.7,16.6Z" transform="translate(0 0.88)"/><g id="Layer_2" data-name="Layer 2"><g id="Layer_1-2" data-name="Layer 1-2"><g id="Layer_2-2" data-name="Layer 2-2"><g id="Layer_1-2-2" data-name="Layer 1-2-2"><path class="cls-1" d="M107.46,83.53a38.43,38.43,0,0,0-8.8-7,18.93,18.93,0,0,0-9.4-2.6,27.43,27.43,0,0,0-20.7,8.8,27.11,27.11,0,0,0-5.6,9.2,31.68,31.68,0,0,0,0,21.6,27.11,27.11,0,0,0,5.6,9.2,27.43,27.43,0,0,0,20.7,8.8,23.78,23.78,0,0,0,10.4-2.3,22.51,22.51,0,0,0,8.2-6.7l16,17.2a36.77,36.77,0,0,1-8.3,6.2,56.7,56.7,0,0,1-9.5,4.2,59.23,59.23,0,0,1-9.2,2.3,49.6,49.6,0,0,1-7.6.7,57.75,57.75,0,0,1-20.4-3.6,48.93,48.93,0,0,1-16.6-10.2,48.35,48.35,0,0,1-11.1-15.9,50.91,50.91,0,0,1-4.1-20.7A50.59,50.59,0,0,1,41.16,82a48.56,48.56,0,0,1,11.1-15.9c4.66-4.4,10.91-1.54,17.31-3.94s15.3-1.14,24-4c5.82-1.92,8-4.69,14.19-2.36a42,42,0,0,1,16.3,11.1Z" transform="translate(0 0.88)"/></g></g><g id="surface1"><path class="cls-2" d="M36,77.1l86.11-12.69s-.68-1.13-1.9-3l1.17.62S99.47-10.23,44,1.23C14.82,7.27,10.47,44,10.47,44s5.78-5.74,13-11.52c4.14-2.36,8.57-4.41,10.32-3.54C45.35,34.64,29.45,55.43,36,77.1Z" transform="translate(0 0.88)"/><path class="cls-3" d="M36,77.1c1.43,4.72,6.34,6.78,13.12,7.12,3.08-2.67,5-6.17,4.39-10.74C47.11,52.42,56.51,45,51,24.65c-3.5-8.95-17.08-.54-27.59,7.84,4.15-2.36,8.59-4.42,10.34-3.55C45.35,34.64,29.45,55.43,36,77.1Z" transform="translate(0 0.88)"/><path class="cls-1" d="M126.54,68.63,36.05,87.34,30.92,70.48l90.49-18.71Z" transform="translate(0 0.88)"/><path class="cls-1" d="M110.47,51.47c2.41-.5,4.87.72,5.47,2.71s-.86,4-3.28,4.52-4.87-.7-5.48-2.7S108.05,52,110.47,51.47Z" transform="translate(0 0.88)"/><path class="cls-1" d="M119.22,49.66c2.42-.5,4.87.72,5.48,2.71s-.87,4-3.28,4.52-4.87-.71-5.48-2.71S116.8,50.16,119.22,49.66Z" transform="translate(0 0.88)"/><path class="cls-1" d="M101.71,53.29c2.42-.5,4.87.71,5.47,2.7s-.86,4-3.28,4.52S99,59.8,98.43,57.8,99.29,53.78,101.71,53.29Z" transform="translate(0 0.88)"/><path class="cls-1" d="M93,55.1c2.42-.5,4.87.71,5.48,2.7s-.87,4-3.28,4.52-4.87-.71-5.48-2.71S90.53,55.6,93,55.1Z" transform="translate(0 0.88)"/><path class="cls-1" d="M84.19,56.91c2.42-.5,4.87.71,5.48,2.7s-.86,4-3.28,4.52-4.87-.71-5.48-2.71S81.78,57.41,84.19,56.91Z" transform="translate(0 0.88)"/><path class="cls-1" d="M114.86,65.92c2.41-.5,4.87.71,5.47,2.71s-.86,4-3.28,4.52-4.87-.72-5.48-2.71S112.44,66.42,114.86,65.92Z" transform="translate(0 0.88)"/><path class="cls-1" d="M106.1,67.73c2.42-.5,4.87.72,5.47,2.71s-.86,4-3.28,4.52-4.87-.72-5.47-2.71S103.68,68.23,106.1,67.73Z" transform="translate(0 0.88)"/><path class="cls-1" d="M97.34,69.54c2.42-.5,4.87.72,5.48,2.71s-.87,4-3.28,4.52-4.87-.71-5.48-2.71S94.92,70,97.34,69.54Z" transform="translate(0 0.88)"/><path class="cls-1" d="M88.58,71.35c2.42-.5,4.87.72,5.48,2.71s-.86,4-3.28,4.52-4.87-.71-5.48-2.71S86.17,71.85,88.58,71.35Z" transform="translate(0 0.88)"/><path class="cls-1" d="M75.44,58.72c2.41-.5,4.87.71,5.47,2.7s-.86,4-3.28,4.52-4.87-.71-5.47-2.71S73,59.22,75.44,58.72Z" transform="translate(0 0.88)"/><path class="cls-1" d="M79.83,73.17c2.41-.5,4.87.71,5.47,2.7s-.86,4-3.28,4.52-4.87-.71-5.47-2.71S77.41,73.67,79.83,73.17Z" transform="translate(0 0.88)"/><path class="cls-1" d="M71.07,75c2.42-.5,4.87.71,5.48,2.7s-.87,4-3.28,4.52-4.87-.71-5.48-2.71S68.65,75.48,71.07,75Z" transform="translate(0 0.88)"/><path class="cls-1" d="M33.85,75c2.41-.5,4.87.71,5.47,2.7s-.86,4-3.28,4.52-4.87-.71-5.47-2.71S31.43,75.5,33.85,75Z" transform="translate(0 0.88)"/><path class="cls-1" d="M66.68,60.53c2.42-.5,4.87.71,5.48,2.7s-.87,4-3.28,4.52S64,67,63.4,65.05,64.26,61,66.68,60.53Z" transform="translate(0 0.88)"/><path class="cls-1" d="M62.31,76.79c2.42-.5,4.87.71,5.48,2.7s-.86,4-3.28,4.52S59.64,83.3,59,81.3,59.9,77.29,62.31,76.79Z" transform="translate(0 0.88)"/><path class="cls-1" d="M57.92,62.34c2.42-.5,4.87.71,5.48,2.71s-.86,4-3.28,4.51-4.87-.71-5.48-2.7S55.51,62.84,57.92,62.34Z" transform="translate(0 0.88)"/><path class="cls-1" d="M53.56,78.6c2.41-.5,4.87.71,5.47,2.7s-.86,4-3.28,4.52-4.87-.71-5.47-2.71S51.14,79.1,53.56,78.6Z" transform="translate(0 0.88)"/><path class="cls-1" d="M49.17,64.15c2.41-.5,4.87.71,5.47,2.71s-.86,4-3.28,4.51-4.87-.71-5.47-2.7S46.75,64.65,49.17,64.15Z" transform="translate(0 0.88)"/><path class="cls-1" d="M44.8,80.41c2.42-.5,4.87.71,5.48,2.7s-.87,4-3.29,4.52-4.87-.71-5.47-2.7S42.38,80.91,44.8,80.41Z" transform="translate(0 0.88)"/><path class="cls-1" d="M40.41,66c2.42-.5,4.87.71,5.48,2.71s-.87,4-3.29,4.51-4.87-.71-5.47-2.7S38,66.46,40.41,66Z" transform="translate(0 0.88)"/><path class="cls-1" d="M36,82.22c2.42-.5,4.87.71,5.48,2.71s-.86,4-3.28,4.51-4.87-.71-5.48-2.7S33.63,82.72,36,82.22Z" transform="translate(0 0.88)"/><path class="cls-1" d="M31.65,67.77c2.42-.5,4.87.71,5.48,2.71s-.87,4-3.28,4.52-4.87-.72-5.48-2.71S29.24,68.27,31.65,67.77Z" transform="translate(0 0.88)"/><path class="cls-1" d="M121.42,56.89c2.41-.5,4.87.71,5.47,2.7s-.86,4-3.28,4.52-4.87-.71-5.47-2.71S119,57.39,121.42,56.89Z" transform="translate(0 0.88)"/><path class="cls-1" d="M123.61,64.11c2.42-.5,4.87.71,5.48,2.71s-.87,4-3.28,4.52-4.87-.72-5.48-2.71S121.19,64.61,123.61,64.11Z" transform="translate(0 0.88)"/><path class="cls-1" d="M17.9,49.06c5.79-1.2,9.31-6,7.87-10.74s-7.29-7.61-13.09-6.42-9.3,6-7.86,10.75S12.12,50.26,17.9,49.06Z" transform="translate(0 0.88)"/><path class="cls-1" d="M21,52.06a5.11,5.11,0,0,1-4.54-1.16,5.08,5.08,0,0,1-5.09,1.75A4,4,0,0,1,8,49.07,5.08,5.08,0,0,1,2.71,47.7,3.18,3.18,0,0,1,3,43.21H3a3.75,3.75,0,0,1-3-3.84H0A4.15,4.15,0,0,1,3.76,36a3.25,3.25,0,0,1,.77-4.46A5.28,5.28,0,0,1,10,31a4.33,4.33,0,0,1,4.12-3,4.68,4.68,0,0,1,4.65,2.45,5.34,5.34,0,0,1,5.48-.15,3.37,3.37,0,0,1,1.62,4.36,4.4,4.4,0,0,1,4.31,2.78,3.46,3.46,0,0,1-1.91,4,3.22,3.22,0,0,1,1,4.23A4.84,4.84,0,0,1,24.4,47.8a3.61,3.61,0,0,1-2.56,4A4.81,4.81,0,0,1,21,52.06Zm-2.2-7.23a5.56,5.56,0,0,1,1.82,0A3.3,3.3,0,0,1,21,42.57,4.12,4.12,0,0,1,22.61,41a3.65,3.65,0,0,1-1.26-1.78A3.1,3.1,0,0,1,21.52,37a5.41,5.41,0,0,1-2.59-.7,3.8,3.8,0,0,1-1.59-1.77,5.32,5.32,0,0,1-2.54.84,5.17,5.17,0,0,1-2.62-.51,3.88,3.88,0,0,1-1.27,2,5,5,0,0,1-2.42,1A3.2,3.2,0,0,1,9.07,40a3.26,3.26,0,0,1-1,2,4.48,4.48,0,0,1,2.13,1.35,3.13,3.13,0,0,1,.8,2.18,5.57,5.57,0,0,1,2.69-.09A4.66,4.66,0,0,1,16,46.6a4.5,4.5,0,0,1,2-1.5h0a6.41,6.41,0,0,1,.81-.27Z" transform="translate(0 0.88)"/></g></g></g></svg>