<?xml version="1.0" encoding="utf-8"?>
<!-- Generator: Adobe Illustrator 24.0.1, SVG Export Plug-In . SVG Version: 6.00 Build 0)  -->
<svg version="1.1" id="Layer_1" xmlns="http://www.w3.org/2000/svg" xmlns:xlink="http://www.w3.org/1999/xlink" x="0px" y="0px"
	 viewBox="0 0 1010.3 201.5" style="enable-background:new 0 0 1010.3 201.5;" xml:space="preserve">
<style type="text/css">
	.st0{fill:#F9F9F9;}
	.st1{fill:#FF3D00;}
	.st2{fill:#DD2C00;}
</style>
<title>Asset 3</title>
<path class="st0" d="M597,147.5c-1.6,11.5-4.6,20.7-9,27.8c-4.4,7.1-9.3,12.5-14.8,16.4c-5.1,3.7-10.9,6.4-17.1,7.8
	c-5.2,1.2-10.5,1.9-15.9,2c-8.8,0.1-17.6-1.6-25.7-5.1c-7.8-3.4-13.6-8.2-17.5-14.3l10.8-8.8c3.1,5.8,8,10.4,14,13.2
	c11.3,4.9,23.9,5.5,35.6,1.8c7.8-2.7,14.5-7.9,19-14.9c1.9-2.9,3.5-6.1,4.7-9.4c1.1-2.9,1.9-5.9,2.5-8.9c0.5-2.8,0.9-5.1,1.2-6.8
	l1.8-12.8h-0.4c-4.2,5.6-9.7,10.1-15.9,13.2c-6.7,3.3-14.1,4.9-21.5,4.8c-6.4,0.1-12.8-1.2-18.7-3.7c-11-4.6-19.3-13.9-22.8-25.3
	c-1.8-6-2.3-12.2-1.3-18.4c0.9-6.5,3.1-12.8,6.5-18.4c3.4-5.7,7.7-10.8,12.7-15c5.1-4.3,10.9-7.7,17.1-10.2c6.3-2.5,13-3.8,19.7-3.8
	c8,0,14.7,1.6,20.2,4.8c5.3,3,9.6,7.7,12.2,13.2h0.4l2.2-15.6h12L597,147.5z M591.2,106.1c0.7-4.8,0.4-9.6-0.9-14.3
	c-1.2-4.3-3.3-8.2-6.2-11.6c-2.9-3.3-6.5-6-10.5-7.8c-4.3-2-9-3-13.8-2.9c-5,0-10,1-14.7,2.9c-4.7,1.9-9,4.5-12.8,7.8
	c-3.8,3.3-7,7.2-9.5,11.6c-2.5,4.4-4.1,9.3-4.8,14.3c-0.7,4.8-0.4,9.6,0.9,14.3c1.2,4.3,3.3,8.2,6.2,11.6c2.9,3.3,6.5,6,10.5,7.8
	c4.3,2,9,3,13.8,2.9c5,0,10-1,14.7-2.9c4.7-1.9,9-4.5,12.8-7.8c3.8-3.3,7-7.2,9.5-11.6C589,116,590.6,111.2,591.2,106.1z"/>
<path class="st0" d="M634.8,87.1c0.3-1.7,0.5-3.8,0.8-6.3c0.3-2.5,0.5-5,0.7-7.5s0.4-4.9,0.6-7.1s0.4-3.9,0.5-5.1h12
	c-0.3,3.5-0.6,6.8-1,10c-0.3,2-0.5,4.1-0.4,6.2c3.7-5.3,8.3-9.8,13.7-13.4c5.4-3.5,11.8-5.3,18.3-5.2c2.3,0,4.6,0.4,6.8,1l-3,11.8
	c-1.4-0.5-2.9-0.8-4.4-0.8c-4.7-0.1-9.4,0.8-13.8,2.5c-3.9,1.6-7.4,3.9-10.4,6.9c-3,3-5.3,6.5-7,10.3c-1.8,4-3,8.3-3.6,12.7l-7,50.4
	h-12L634.8,87.1z"/>
<path class="st0" d="M769.5,114.7c-0.7,4.5-1.2,8.6-1.7,12.2c-0.5,3.6-0.8,6.9-1.1,10c-0.3,3.1-0.5,5.9-0.6,8.6s-0.2,5.3-0.2,8
	h-11.2c-0.1-2.4-0.1-4.8,0-7.2c0.1-2.5,0.4-5.1,0.8-7.8H755c-3.7,5.5-8.8,10.1-14.7,13.2c-5.5,2.8-12.2,4.2-20.1,4.2
	c-3.9,0-7.8-0.5-11.6-1.5c-3.6-0.9-6.9-2.5-9.8-4.8c-2.8-2.2-5-5.2-6.3-8.5c-1.4-3.5-1.8-7.7-1.1-12.6c0.9-7.1,3.5-12.7,7.8-16.8
	c4.2-4.1,9.2-7.3,14.7-9.3c5.6-2.1,11.4-3.4,17.3-4c6-0.6,11.3-0.9,15.8-0.9h14l0.8-5.6c1.1-8-0.6-13.7-5-17.2
	c-4.4-3.5-10.3-5.2-17.8-5.2c-10.8,0-21.3,3.7-29.8,10.4l-5.8-8.2c5.2-4.4,11.3-7.7,17.8-9.7c6.2-2.1,12.7-3.2,19.2-3.3
	c11.2,0,19.8,2.6,25.7,7.9s8.1,13.8,6.5,25.5L769.5,114.7z M746.5,107.1c-5,0-10,0.3-14.9,1c-4.5,0.6-9,1.7-13.2,3.4
	c-3.7,1.5-7.1,3.6-10,6.4c-2.7,2.7-4.5,6.2-4.9,10c-0.4,2.5-0.2,5.1,0.8,7.5c0.9,2.1,2.3,4,4.1,5.4c1.9,1.4,4,2.5,6.3,3.2
	c2.4,0.7,4.9,1.1,7.4,1.1c6.4,0,11.8-0.9,16.2-2.8c8-3.2,14.3-9.5,17.5-17.5c1.5-3.7,2.5-7.6,3.1-11.5l0.8-6.2H746.5z"/>
<path class="st0" d="M879,137.3h-0.4c-2.2,3.2-5,6-8.1,8.3c-3.1,2.3-6.5,4.3-10,5.8c-3.5,1.5-7.1,2.7-10.8,3.4
	c-3.5,0.7-7.1,1.1-10.7,1.1c-6.5,0.1-13-1.1-19-3.6c-5.4-2.2-10.2-5.7-14-10.1c-3.7-4.5-6.4-9.7-7.9-15.4c-1.6-6.4-1.9-13-0.8-19.5
	c0.9-6.8,3-13.5,6.3-19.5c3.2-5.8,7.3-11,12.2-15.4c4.9-4.4,10.6-7.8,16.8-10.1c6.4-2.4,13.2-3.6,20.1-3.6c3.5,0,7,0.4,10.4,1.1
	c3.4,0.7,6.8,1.9,9.9,3.4c3.1,1.5,5.9,3.4,8.3,5.8c2.4,2.4,4.4,5.2,5.8,8.3h0.4l10.6-75h12l-21.2,151.2h-12L879,137.3z M884.5,107.3
	c0.8-4.9,0.5-9.9-0.8-14.7c-1.2-4.4-3.5-8.5-6.5-12c-3.1-3.5-6.9-6.2-11.1-8.1c-4.7-2.1-9.7-3.1-14.8-3c-5.3,0-10.7,1-15.6,3
	c-9.4,3.9-17.1,11-21.7,20.1c-2.3,4.6-3.9,9.6-4.7,14.7c-0.8,4.9-0.7,9.9,0.4,14.7c1,4.4,2.9,8.5,5.6,12c2.8,3.5,6.3,6.3,10.4,8.1
	c4.7,2.1,9.7,3.1,14.8,3c5.4,0,10.7-1,15.7-3c4.9-1.9,9.4-4.7,13.4-8.1c3.9-3.4,7.3-7.5,9.8-12C882,117.5,883.7,112.5,884.5,107.3z"
	/>
<path class="st0" d="M1002.2,136.1c-5.1,6.6-11.8,11.8-19.5,15.2c-7.4,3.1-15.3,4.7-23.3,4.6c-6.4,0.1-12.8-1.1-18.7-3.6
	c-5.2-2.3-9.8-5.7-13.4-10.1c-3.6-4.5-6.1-9.8-7.4-15.4c-1.4-6.5-1.6-13.2-0.5-19.7c1.7-13.2,8.1-25.5,17.9-34.5
	c4.7-4.3,10.1-7.8,16-10.2c6.1-2.5,12.6-3.7,19.1-3.7c7.1,0,13.1,1.2,18.2,3.7c4.8,2.3,9,5.6,12.3,9.8c3.2,4.1,5.3,8.8,6.4,13.9
	c1.1,5.2,1.3,10.5,0.5,15.8l-1.2,8.4H931c-0.4,3.2-0.4,6.5,0.1,9.7c0.5,4.1,1.8,8,3.9,11.5c2.3,3.9,5.5,7.2,9.3,9.6
	c4.1,2.7,9.6,4,16.7,4c6.4-0.1,12.7-1.6,18.5-4.4c5.9-2.7,11-6.8,14.9-12L1002.2,136.1z M998,99.5c0.6-3.9,0.3-7.8-0.8-11.6
	c-1-3.5-2.9-6.8-5.4-9.5c-2.6-2.8-5.8-5-9.3-6.5c-3.8-1.6-7.9-2.4-12.1-2.4c-5.9-0.2-11.7,1.2-16.9,4c-4.4,2.4-8.3,5.5-11.7,9.2
	c-2.8,3-5.1,6.4-6.9,10.1c-1.1,2.1-2,4.4-2.5,6.7L998,99.5z"/>
<path class="st0" d="M133.5,105.5c-0.1-7.1,1.3-14.2,4.1-20.7c2.6-6,6.4-11.4,11.1-15.9c4.8-4.5,10.4-7.9,16.6-10.2
	c13.2-4.8,27.6-4.8,40.8,0c12.5,4.5,22.5,13.9,27.7,26.1c2.8,6.5,4.2,13.6,4.1,20.7c0.1,7.1-1.3,14.2-4.1,20.7
	c-5.2,12.2-15.2,21.6-27.7,26.1c-13.2,4.8-27.6,4.8-40.8,0c-6.2-2.3-11.8-5.7-16.6-10.2c-4.7-4.5-8.5-9.9-11.1-15.9
	C134.8,119.7,133.4,112.6,133.5,105.5z M157.5,105.5c0,3.7,0.6,7.3,1.9,10.8c1.2,3.4,3.1,6.5,5.6,9.2c10.7,11.4,28.7,12,40.1,1.3
	c0.4-0.4,0.9-0.9,1.3-1.3c2.5-2.7,4.4-5.8,5.6-9.2c2.5-7,2.5-14.6,0-21.6c-1.2-3.4-3.1-6.5-5.6-9.2c-10.7-11.4-28.7-12-40.1-1.3
	c-0.4,0.4-0.9,0.9-1.3,1.3c-2.5,2.7-4.4,5.8-5.6,9.2C158.1,98.2,157.5,101.9,157.5,105.5z"/>
<path class="st0" d="M336.2,139.1h-0.4c-3.2,5.6-8.1,10.1-14,12.8c-6,2.7-12.5,4.1-19,4c-6.8,0.1-13.6-1.2-19.9-3.9
	c-5.7-2.5-10.7-6.1-14.9-10.7c-4.2-4.6-7.4-10.1-9.4-16c-2.2-6.4-3.3-13.1-3.2-19.8c-0.1-6.7,1.1-13.5,3.4-19.8
	c2.1-5.9,5.3-11.3,9.5-16c4.1-4.6,9.1-8.2,14.7-10.7c5.9-2.6,12.3-4,18.8-3.9c4-0.1,8.1,0.4,12,1.4c3.2,0.8,6.3,2,9.2,3.6
	c2.4,1.3,4.7,2.9,6.8,4.7c1.7,1.5,3.2,3.1,4.6,4.9h0.6V2.3h24v151.2h-22.8L336.2,139.1z M279.5,105.5c0,3.7,0.6,7.3,1.9,10.8
	c1.2,3.4,3.1,6.5,5.6,9.2c10.7,11.4,28.7,12,40.1,1.3c0.4-0.4,0.9-0.9,1.3-1.3c2.5-2.7,4.4-5.8,5.6-9.2c2.5-7,2.5-14.6,0-21.6
	c-1.2-3.4-3.1-6.5-5.6-9.2c-10.7-11.4-28.7-12-40.1-1.3c-0.4,0.4-0.9,0.9-1.3,1.3c-2.5,2.7-4.4,5.8-5.6,9.2
	C280.1,98.2,279.5,101.8,279.5,105.5z"/>
<path class="st0" d="M405.5,113.9c0.8,7.2,3.6,12.8,8.4,16.8c4.9,4,11.1,6.2,17.4,6c6,0,11-1.2,15.1-3.7c4.1-2.5,7.7-5.6,10.7-9.3
	l17.2,13c-5.6,6.9-11.9,11.9-18.8,14.8c-6.9,2.9-14.3,4.4-21.8,4.4c-7,0-13.9-1.2-20.4-3.6c-6.2-2.3-11.8-5.7-16.6-10.2
	c-4.7-4.5-8.5-9.9-11.1-15.9c-2.8-6.5-4.2-13.6-4.1-20.7c-0.1-7.1,1.3-14.2,4.1-20.7c2.6-6,6.4-11.4,11.1-15.9
	c4.8-4.5,10.4-7.9,16.6-10.2c6.5-2.4,13.4-3.6,20.4-3.6c6.3-0.1,12.5,1.1,18.3,3.5c5.4,2.3,10.3,5.7,14.2,10.1
	c4.1,4.8,7.3,10.3,9.2,16.3c2.3,7.2,3.4,14.7,3.3,22.3v6.6H405.5z M454.7,95.9c-0.1-7.1-2.3-12.6-6.6-16.7
	c-4.3-4.1-10.2-6.1-17.8-6.1c-7.2,0-12.9,2.1-17.1,6.2s-6.8,9.7-7.7,16.6L454.7,95.9z"/>
<g id="Layer_2_1_">
	<g id="Layer_1-2">
		<g id="Layer_2-2">
			<g id="Layer_1-2-2">
				<path class="st0" d="M108.1,86.5c-2.6-2.8-5.5-5.1-8.8-7c-2.9-1.7-6.1-2.6-9.4-2.6c-7.8-0.2-15.4,3-20.7,8.8
					c-2.5,2.7-4.4,5.8-5.6,9.2c-2.5,7-2.5,14.6,0,21.6c1.2,3.4,3.1,6.5,5.6,9.2c5.3,5.8,12.9,9,20.7,8.8c3.6,0,7.2-0.8,10.4-2.3
					c3.2-1.6,6-3.9,8.2-6.7l16,17.2c-2.5,2.4-5.3,4.5-8.3,6.2c-3,1.7-6.2,3.1-9.5,4.2c-3,1-6.1,1.8-9.2,2.3
					c-2.5,0.4-5.1,0.7-7.6,0.7c-7,0-13.9-1.2-20.4-3.6c-6.2-2.3-11.8-5.7-16.6-10.2c-4.7-4.5-8.5-9.9-11.1-15.9
					c-2.8-6.5-4.2-13.6-4.1-20.7c-0.1-7.1,1.3-14.2,4.1-20.7c2.6-6,6.4-11.4,11.1-15.9c4.7-4.4,10.9-1.5,17.3-3.9
					c6.4-2.4,15.3-1.1,24-4c5.8-1.9,8-4.7,14.2-2.4c6.2,2.4,11.8,6.2,16.3,11.1L108.1,86.5z"/>
			</g>
		</g>
		<g id="surface1_1_">
			<path class="st1" d="M36.6,80.1l86.1-12.7c0,0-0.7-1.1-1.9-3L122,65c0,0-21.9-72.3-77.4-60.8C15.4,10.3,11.1,47,11.1,47
				s5.8-5.7,13-11.5c4.1-2.4,8.6-4.4,10.3-3.5C45.9,37.6,30,58.4,36.6,80.1z"/>
			<path class="st2" d="M36.6,80.1c1.4,4.7,6.3,6.8,13.1,7.1c3.1-2.7,5-6.2,4.4-10.7c-6.4-21.1,3-28.5-2.5-48.8
				c-3.5-8.9-17.1-0.5-27.6,7.8c4.1-2.4,8.6-4.4,10.3-3.6C45.9,37.6,30,58.4,36.6,80.1z"/>
			<path class="st0" d="M127.1,71.6L36.6,90.3l-5.1-16.9L122,54.8L127.1,71.6z"/>
			<path class="st0" d="M111.1,54.5c2.4-0.5,4.9,0.7,5.5,2.7s-0.9,4-3.3,4.5s-4.9-0.7-5.5-2.7S108.6,55,111.1,54.5z"/>
			<path class="st0" d="M119.8,52.7c2.4-0.5,4.9,0.7,5.5,2.7s-0.9,4-3.3,4.5s-4.9-0.7-5.5-2.7S117.4,53.2,119.8,52.7z"/>
			<path class="st0" d="M102.3,56.3c2.4-0.5,4.9,0.7,5.5,2.7s-0.9,4-3.3,4.5c-2.4,0.5-4.9-0.7-5.5-2.7S99.9,56.8,102.3,56.3z"/>
			<path class="st0" d="M93.6,58.1c2.4-0.5,4.9,0.7,5.5,2.7s-0.9,4-3.3,4.5c-2.4,0.5-4.9-0.7-5.5-2.7S91.1,58.6,93.6,58.1z"/>
			<path class="st0" d="M84.8,59.9c2.4-0.5,4.9,0.7,5.5,2.7c0.6,2-0.9,4-3.3,4.5s-4.9-0.7-5.5-2.7S82.4,60.4,84.8,59.9z"/>
			<path class="st0" d="M115.5,68.9c2.4-0.5,4.9,0.7,5.5,2.7s-0.9,4-3.3,4.5s-4.9-0.7-5.5-2.7S113,69.4,115.5,68.9z"/>
			<path class="st0" d="M106.7,70.7c2.4-0.5,4.9,0.7,5.5,2.7s-0.9,4-3.3,4.5s-4.9-0.7-5.5-2.7S104.3,71.2,106.7,70.7z"/>
			<path class="st0" d="M97.9,72.5c2.4-0.5,4.9,0.7,5.5,2.7s-0.9,4-3.3,4.5s-4.9-0.7-5.5-2.7S95.5,73,97.9,72.5z"/>
			<path class="st0" d="M89.2,74.4c2.4-0.5,4.9,0.7,5.5,2.7s-0.9,4-3.3,4.5s-4.9-0.7-5.5-2.7S86.8,74.9,89.2,74.4z"/>
			<path class="st0" d="M76,61.7c2.4-0.5,4.9,0.7,5.5,2.7c0.6,2-0.9,4-3.3,4.5s-4.9-0.7-5.5-2.7S73.6,62.2,76,61.7z"/>
			<path class="st0" d="M80.4,76.2c2.4-0.5,4.9,0.7,5.5,2.7s-0.9,4-3.3,4.5s-4.9-0.7-5.5-2.7S78,76.7,80.4,76.2z"/>
			<path class="st0" d="M71.7,78c2.4-0.5,4.9,0.7,5.5,2.7s-0.9,4-3.3,4.5s-4.9-0.7-5.5-2.7S69.2,78.5,71.7,78z"/>
			<path class="st0" d="M34.4,78c2.4-0.5,4.9,0.7,5.5,2.7s-0.9,4-3.3,4.5s-4.9-0.7-5.5-2.7S32,78.5,34.4,78z"/>
			<path class="st0" d="M67.3,63.5c2.4-0.5,4.9,0.7,5.5,2.7c0.6,2-0.9,4-3.3,4.5S64.6,70,64,68.1S64.9,64,67.3,63.5z"/>
			<path class="st0" d="M62.9,79.8c2.4-0.5,4.9,0.7,5.5,2.7s-0.9,4-3.3,4.5s-4.9-0.7-5.5-2.7S60.5,80.3,62.9,79.8z"/>
			<path class="st0" d="M58.5,65.3c2.4-0.5,4.9,0.7,5.5,2.7c0.6,2-0.9,4-3.3,4.5s-4.9-0.7-5.5-2.7S56.1,65.8,58.5,65.3z"/>
			<path class="st0" d="M54.2,81.6c2.4-0.5,4.9,0.7,5.5,2.7s-0.9,4-3.3,4.5s-4.9-0.7-5.5-2.7S51.7,82.1,54.2,81.6z"/>
			<path class="st0" d="M49.8,67.2c2.4-0.5,4.9,0.7,5.5,2.7s-0.9,4-3.3,4.5s-4.9-0.7-5.5-2.7S47.3,67.7,49.8,67.2z"/>
			<path class="st0" d="M45.4,83.4c2.4-0.5,4.9,0.7,5.5,2.7s-0.9,4-3.3,4.5s-4.9-0.7-5.5-2.7S43,83.9,45.4,83.4z"/>
			<path class="st0" d="M41,69c2.4-0.5,4.9,0.7,5.5,2.7s-0.9,4-3.3,4.5s-4.9-0.7-5.5-2.7S38.6,69.5,41,69z"/>
			<path class="st0" d="M36.6,85.2c2.4-0.5,4.9,0.7,5.5,2.7s-0.9,4-3.3,4.5s-4.9-0.7-5.5-2.7S34.2,85.7,36.6,85.2z"/>
			<path class="st0" d="M32.2,70.8c2.4-0.5,4.9,0.7,5.5,2.7s-0.9,4-3.3,4.5s-4.9-0.7-5.5-2.7S29.8,71.3,32.2,70.8z"/>
			<path class="st0" d="M122,59.9c2.4-0.5,4.9,0.7,5.5,2.7c0.6,2-0.9,4-3.3,4.5s-4.9-0.7-5.5-2.7S119.6,60.4,122,59.9z"/>
			<path class="st0" d="M124.2,67.1c2.4-0.5,4.9,0.7,5.5,2.7s-0.9,4-3.3,4.5s-4.9-0.7-5.5-2.7S121.8,67.6,124.2,67.1z"/>
			<path class="st0" d="M18.5,52.1c5.8-1.2,9.3-6,7.9-10.7s-7.3-7.6-13.1-6.4c-5.8,1.2-9.3,6-7.9,10.8S12.7,53.3,18.5,52.1z"/>
			<path class="st0" d="M21.6,55.1c-1.6,0.4-3.3-0.1-4.5-1.2c-1.2,1.5-3.2,2.2-5.1,1.8c-1.8-0.3-3.2-1.8-3.4-3.6
				c-1.9,0.6-3.9,0.1-5.3-1.4c-1.2-1.3-1-3.3,0.3-4.5c0,0,0,0,0,0c-1.8-0.4-3.1-2-3-3.8l0,0c0.4-1.8,1.9-3.2,3.8-3.4
				c-1-1.4-0.7-3.4,0.8-4.5c1.6-1.2,3.7-1.4,5.5-0.5c0.6-1.8,2.2-3,4.1-3c1.9-0.2,3.8,0.8,4.7,2.5c1.7-1.1,3.8-1.1,5.5-0.2
				c1.6,0.8,2.3,2.7,1.6,4.4c1.9-0.1,3.6,1,4.3,2.8c0.4,1.6-0.4,3.3-1.9,4c1.4,0.9,1.8,2.8,1,4.2c-1.1,1.6-3,2.5-4.9,2.1
				c0.3,1.8-0.8,3.5-2.6,4C22.2,54.9,21.9,55,21.6,55.1z M19.4,47.8c0.6-0.1,1.2-0.1,1.8,0c-0.2-0.8,0-1.6,0.4-2.3
				c0.4-0.7,0.9-1.2,1.6-1.6c-0.6-0.4-1-1.1-1.3-1.8c-0.2-0.7-0.2-1.5,0.2-2.2c-0.9,0-1.8-0.3-2.6-0.7c-0.7-0.4-1.3-1-1.6-1.8
				c-0.8,0.5-1.6,0.8-2.5,0.8c-0.9,0.1-1.8-0.1-2.6-0.5c-0.2,0.8-0.6,1.5-1.3,2c-0.7,0.5-1.5,0.9-2.4,1c0.4,0.6,0.6,1.4,0.6,2.1
				c-0.1,0.8-0.4,1.5-1,2c0.8,0.2,1.6,0.7,2.1,1.3c0.5,0.6,0.8,1.4,0.8,2.2c0.9-0.3,1.8-0.3,2.7-0.1c0.9,0.2,1.7,0.6,2.3,1.2
				c0.5-0.7,1.2-1.2,2-1.5l0,0C18.9,48,19.1,47.9,19.4,47.8L19.4,47.8z"/>
		</g>
	</g>
</g>
</svg>
