<svg xmlns="http://www.w3.org/2000/svg" viewBox="0 0 129.22 153.13"><defs><style>.cls-1{fill:#f9f9f9}</style></defs><g id="Layer_2" data-name="Layer 2"><g id="Layer_1-2" data-name="Layer 1"><g id="Layer_2-2" data-name="Layer 2"><path class="cls-1" d="M107.46 83.53a38.43 38.43 0 00-8.8-7 18.93 18.93 0 00-9.4-2.6 27.42 27.42 0 00-20.7 8.8 27 27 0 00-5.6 9.2 31.68 31.68 0 000 21.6 27 27 0 005.6 9.2 27.42 27.42 0 0020.7 8.8 23.81 23.81 0 0010.4-2.3 22.68 22.68 0 008.2-6.7l16 17.2a37 37 0 01-8.3 6.2 57.53 57.53 0 01-9.5 4.2 59.52 59.52 0 01-9.2 2.3 49.6 49.6 0 01-7.6.7 57.75 57.75 0 01-20.4-3.6 48.84 48.84 0 01-16.6-10.2 48.3 48.3 0 01-11.1-15.9 50.78 50.78 0 01-4.1-20.7A50.56 50.56 0 0141.16 82a48.3 48.3 0 0111.1-15.9c4.66-4.4 10.91-1.54 17.31-3.94s15.3-1.14 24-4c5.82-1.92 8-4.69 14.19-2.36a42.09 42.09 0 0116.3 11.1z" id="Layer_1-2-2" data-name="Layer 1-2"/></g><g id="surface1"><path d="M36 77.1l86.11-12.69s-.68-1.13-1.9-3l1.17.62S99.47-10.23 44 1.23C14.82 7.27 10.47 44 10.47 44s5.78-5.74 13-11.52c4.14-2.36 8.57-4.41 10.32-3.54 11.56 5.7-4.34 26.49 2.21 48.16z" fill="#ff3d00"/><path d="M36 77.1c1.43 4.72 6.34 6.78 13.12 7.12 3.08-2.67 5-6.17 4.39-10.74-6.4-21.06 3-28.53-2.49-48.83-3.5-8.95-17.08-.54-27.59 7.84 4.15-2.36 8.59-4.42 10.34-3.55 11.58 5.7-4.32 26.49 2.23 48.16z" fill="#dd2c00"/><path class="cls-1" d="M126.54 68.63L36.05 87.34l-5.13-16.86 90.49-18.71z"/><path class="cls-1" d="M110.47 51.47c2.41-.5 4.87.72 5.47 2.71s-.86 4-3.28 4.52-4.87-.7-5.48-2.7.87-4 3.29-4.53z"/><path class="cls-1" d="M119.22 49.66c2.42-.5 4.87.72 5.48 2.71s-.87 4-3.28 4.52-4.87-.71-5.48-2.71.86-4.02 3.28-4.52zM101.71 53.29c2.42-.5 4.87.71 5.47 2.7s-.86 4-3.28 4.52-4.9-.71-5.47-2.71.86-4.02 3.28-4.51z"/><path class="cls-1" d="M93 55.1c2.42-.5 4.87.71 5.48 2.7s-.87 4-3.28 4.52-4.87-.71-5.48-2.71.81-4.01 3.28-4.51zM84.19 56.91c2.42-.5 4.87.71 5.48 2.7s-.86 4-3.28 4.52-4.87-.71-5.48-2.71.87-4.01 3.28-4.51zM114.86 65.92c2.41-.5 4.87.71 5.47 2.71s-.86 4-3.28 4.52-4.87-.72-5.48-2.71.87-4.02 3.29-4.52z"/><path class="cls-1" d="M106.1 67.73c2.42-.5 4.87.72 5.47 2.71s-.86 4-3.28 4.52-4.87-.72-5.47-2.71.86-4.02 3.28-4.52z"/><path class="cls-1" d="M97.34 69.54c2.42-.5 4.87.72 5.48 2.71s-.87 4-3.28 4.52-4.87-.71-5.48-2.71.86-4.06 3.28-4.52z"/><path class="cls-1" d="M88.58 71.35c2.42-.5 4.87.72 5.48 2.71s-.86 4-3.28 4.52-4.87-.71-5.48-2.71.87-4.02 3.28-4.52zM75.44 58.72c2.41-.5 4.87.71 5.47 2.7s-.86 4-3.28 4.52-4.87-.71-5.47-2.71.84-4.01 3.28-4.51z"/><path class="cls-1" d="M79.83 73.17c2.41-.5 4.87.71 5.47 2.7s-.86 4-3.28 4.52-4.87-.71-5.47-2.71.86-4.01 3.28-4.51z"/><path class="cls-1" d="M71.07 75c2.42-.5 4.87.71 5.48 2.7s-.87 4-3.28 4.52-4.87-.71-5.48-2.71.86-4.03 3.28-4.51zM33.85 75c2.41-.5 4.87.71 5.47 2.7s-.86 4-3.28 4.52-4.87-.71-5.47-2.71.86-4.01 3.28-4.51zM66.68 60.53c2.42-.5 4.87.71 5.48 2.7s-.87 4-3.28 4.52S64 67 63.4 65.05s.86-4.05 3.28-4.52z"/><path class="cls-1" d="M62.31 76.79c2.42-.5 4.87.71 5.48 2.7s-.86 4-3.28 4.52-4.87-.71-5.51-2.71.9-4.01 3.31-4.51zM57.92 62.34c2.42-.5 4.87.71 5.48 2.71s-.86 4-3.28 4.51-4.87-.71-5.48-2.7.87-4.02 3.28-4.52z"/><path class="cls-1" d="M53.56 78.6c2.41-.5 4.87.71 5.47 2.7s-.86 4-3.28 4.52-4.87-.71-5.47-2.71.86-4.01 3.28-4.51zM49.17 64.15c2.41-.5 4.87.71 5.47 2.71s-.86 4-3.28 4.51-4.87-.71-5.47-2.7.86-4.02 3.28-4.52z"/><path class="cls-1" d="M44.8 80.41c2.42-.5 4.87.71 5.48 2.7s-.87 4-3.29 4.52-4.87-.71-5.47-2.7.86-4.02 3.28-4.52zM40.41 66c2.42-.5 4.87.71 5.48 2.71s-.87 4-3.29 4.51-4.87-.71-5.47-2.7.87-4.06 3.28-4.52zM36 82.22c2.42-.5 4.87.71 5.48 2.71s-.86 4-3.28 4.51-4.87-.71-5.48-2.7.91-4.02 3.28-4.52z"/><path class="cls-1" d="M31.65 67.77c2.42-.5 4.87.71 5.48 2.71s-.87 4-3.28 4.52-4.87-.72-5.48-2.71.87-4.02 3.28-4.52zM121.42 56.89c2.41-.5 4.87.71 5.47 2.7s-.86 4-3.28 4.52-4.87-.71-5.47-2.71.86-4.01 3.28-4.51z"/><path class="cls-1" d="M123.61 64.11c2.42-.5 4.87.71 5.48 2.71s-.87 4-3.28 4.52-4.87-.72-5.48-2.71.86-4.02 3.28-4.52zM17.9 49.06c5.79-1.2 9.31-6 7.87-10.74s-7.29-7.61-13.09-6.42-9.3 6-7.86 10.75 7.3 7.61 13.08 6.41z"/><path class="cls-1" d="M21 52.06a5.14 5.14 0 01-4.54-1.16 5.1 5.1 0 01-5.09 1.75A4 4 0 018 49.07a5.08 5.08 0 01-5.29-1.37A3.18 3.18 0 013 43.2a3.75 3.75 0 01-3-3.84A4.15 4.15 0 013.76 36a3.24 3.24 0 01.77-4.46A5.28 5.28 0 0110 31a4.32 4.32 0 014.12-3 4.67 4.67 0 014.65 2.45 5.33 5.33 0 015.48-.15 3.38 3.38 0 011.62 4.36 4.4 4.4 0 014.31 2.78 3.47 3.47 0 01-1.91 4 3.23 3.23 0 011 4.23 4.85 4.85 0 01-4.87 2.13 3.62 3.62 0 01-2.56 4 5.62 5.62 0 01-.84.26zm-2.2-7.23a5.58 5.58 0 011.82 0 3.23 3.23 0 01.38-2.26A4.07 4.07 0 0122.61 41a3.62 3.62 0 01-1.26-1.78 3.06 3.06 0 01.17-2.22 5.46 5.46 0 01-2.59-.7 3.79 3.79 0 01-1.59-1.77 5.39 5.39 0 01-2.54.84 5.18 5.18 0 01-2.62-.51 3.89 3.89 0 01-1.27 2 5.06 5.06 0 01-2.42 1A3.24 3.24 0 019.07 40a3.28 3.28 0 01-1 2 4.54 4.54 0 012.13 1.35 3.15 3.15 0 01.8 2.18 5.42 5.42 0 012.69-.09A4.66 4.66 0 0116 46.6a4.41 4.41 0 012-1.5 6.22 6.22 0 01.81-.27z"/></g></g></g></svg>