<?xml version="1.0" standalone="no"?>
<!DOCTYPE svg PUBLIC "-//W3C//DTD SVG 20010904//EN"
 "http://www.w3.org/TR/2001/REC-SVG-20010904/DTD/svg10.dtd">
<svg version="1.0" xmlns="http://www.w3.org/2000/svg"
 width="154.000000pt" height="154.000000pt" viewBox="0 0 154.000000 154.000000"
 preserveAspectRatio="xMidYMid meet">
<metadata>
Created by potrace 1.11, written by Peter Selinger 2001-2013
</metadata>
<g transform="translate(0.000000,154.000000) scale(0.100000,-0.100000)"
fill="#000000" stroke="none">
<path d="M655 1495 c-86 -42 -506 -239 -557 -262 -77 -34 -58 -63 54 -88 80
-17 86 -22 67 -57 -6 -11 -13 -52 -16 -91 -3 -46 -10 -76 -19 -83 -28 -22 -25
-70 6 -109 23 -29 28 -43 24 -68 -13 -76 -36 -139 -69 -187 -19 -29 -33 -56
-30 -61 3 -4 30 -16 60 -25 63 -20 90 -12 118 36 32 53 37 115 16 213 -13 68
-15 94 -7 104 18 22 11 73 -13 99 -19 20 -21 30 -15 80 9 80 28 110 104 158
110 71 378 207 395 200 18 -7 30 -32 21 -45 -3 -6 -27 -20 -52 -32 -26 -12
-109 -55 -184 -95 -125 -67 -164 -92 -141 -92 4 0 73 -13 151 -30 195 -41 204
-43 227 -43 11 -1 172 71 358 158 300 141 337 161 337 182 0 13 -2 23 -3 23
-2 0 -48 9 -103 21 -54 11 -106 22 -114 24 -8 2 -69 14 -135 28 -66 14 -133
28 -150 31 -16 3 -70 15 -120 26 -118 26 -128 25 -210 -15z"/>
<path d="M1175 1105 c-346 -163 -356 -167 -399 -161 -44 7 -288 58 -370 77
-39 9 -50 9 -56 -2 -15 -23 -3 -64 28 -97 35 -37 44 -79 26 -122 -13 -29 -12
-32 19 -50 18 -11 35 -20 38 -20 4 0 -2 -28 -13 -62 -24 -79 -30 -192 -13
-274 21 -96 62 -171 135 -244 106 -106 227 -152 385 -146 95 4 106 6 171 29
58 21 93 40 135 74 l37 29 -82 86 -82 85 -36 -33 c-59 -54 -145 -68 -240 -40
-157 46 -236 240 -162 402 20 45 32 52 104 59 102 10 184 26 235 45 24 9 33 7
62 -16 l35 -27 81 81 c62 63 78 84 72 99 -4 10 -8 47 -10 83 -3 86 -16 180
-24 179 -3 0 -37 -15 -76 -34z"/>
</g>
</svg>
