<svg version="1" xmlns="http://www.w3.org/2000/svg" width="1365.333" height="1365.333" viewBox="0 0 1024.000000 1024.000000"><path d="M382 51.1c-59.7 28.1-155.5 73.1-213 100.1-140.6 66-130.4 61-133.6 65.8-6.5 9.9-2.4 24 8.3 28.1 1.2.4 26.7 6 56.5 12.4 29.9 6.4 54.9 11.8 55.5 12 .9.3.3 1.9-1.8 4.9-7.7 11.6-15.3 31.8-19.3 51.6-3.6 18.3-4.6 28.6-5.3 56.2l-.6 24.6-2.5 1.4c-3.7 2-11.6 11.2-14.6 17.2-5.5 10.9-7.2 25.1-4.2 36.2 3.6 13.4 14.1 26.6 26 32.4l6.6 3.3v9.9c0 25.2-5.7 58.9-14.6 85.8-9.5 28.8-23.4 54.3-45.8 84-9.7 12.9-10.8 15.3-8 18 5.9 5.8 44.7 21.4 64.8 26 11.9 2.8 16.5 2.1 26.8-4.1 21.1-12.5 38.1-39.3 45.4-71.4 2.8-12.3 3-40.1.4-60-3.6-28.4-12.1-69.5-19.1-92.7l-2.1-6.8 4.4-4.8c14.2-15.8 16.7-36.5 6.6-55.4-3.5-6.7-12.7-15.6-18.7-18.4l-4-1.9-.1-21c0-39.6 5.5-65.9 18.2-87.2 4.5-7.6 18.4-22.2 29.1-30.4 12.6-9.8 27-18.7 69-43 10.5-6 46-25.1 69.2-37.1 12.1-6.3 23.8-12.6 26-13.9 6.4-4 28.8-15.6 65.2-33.8 48.8-24.3 51.6-25.4 59.9-23.2 12.6 3.4 19.9 16.4 16.4 29.2-1.7 6.2-7.3 11.5-16.8 16-34.3 16.2-91.8 46.1-142.7 74.2-15.9 8.8-38.7 21-50.5 27.2-25.8 13.3-52.3 28.6-51.3 29.5.5.4 14.5 3.5 31.3 6.9 33.7 6.9 89.1 18.2 142 29.1 19 3.9 46.7 9.6 61.5 12.6 16.5 3.4 28.4 5.4 30.5 5.1 3-.4 436.2-203.3 449.3-210.5 5.1-2.7 8.9-8 10.2-13.9 1.7-8.2-5-18.2-13.9-20.8C970.7 98.3 495.6 0 492.9.1c-1.3 0-51.2 23-110.9 51z"/><path d="M808.5 273.9c-13.7 6.5-56.9 26.7-96 45-39 18.3-89.2 41.9-111.5 52.3-22.3 10.5-42.4 19.9-44.8 20.9-7.2 3.1-19.7 5.2-28.1 4.7-4.4-.3-69.5-13.4-152.4-30.8-81.9-17.1-145.3-29.8-145.8-29.3-1.8 1.8-3.2 20.9-2.6 35.3.8 18.8 1 19.2 6 21.7 12.2 6 24.7 18.8 31.1 31.7 5.3 10.8 7.7 20.5 8.3 33.6.7 16.4-2.6 29.3-10.8 42-2.2 3.4-3.9 6.6-3.7 7.1.2.5 3.9 3.6 8.3 6.9 8.1 6 26.1 15.8 37 20.1 3.3 1.2 6.4 2.6 6.9 3 .4.4-1.7 6.7-4.7 14.1-11.9 28.8-19.7 58.4-23.9 90.8-2.1 16.7-1.8 73.9.5 91 8.5 63 32.1 118.7 70.3 166.5 10.1 12.6 32.3 35.1 43.6 44.3 52.9 42.9 114.1 67.9 187.8 76.8 17.9 2.2 59.4 2.5 75 .6 51.1-6.3 99.7-21.5 141.5-44.3 20.8-11.3 37.3-23 53.8-38.1l5.8-5.3-53-57c-29.1-31.3-53.4-57.1-53.9-57.3-.4-.1-3.3 2.8-6.2 6.5-20.2 24.8-54.9 44.3-90 50.4-16.5 2.9-44.8 2.9-61.5 0-33.3-5.9-60.8-18.2-86.2-38.7-40.4-32.7-64-79.9-68.5-137.2-3.4-43.1 8.8-90.9 32-125.5 3.1-4.7 6.9-9.9 8.5-11.6 2.7-3.1 2.8-3.1 12.5-3.1 29.3 0 82.4-6.1 122.6-14.1 29.8-5.9 72.3-17.2 88.8-23.8 2.5-.9 3.5-.5 12.7 6.4 5.5 4.1 15 12.3 21.1 18.2l11.1 10.7 55.6-55.6 55.7-55.7-8.5-8.8-8.5-8.8 2.4-6c5.4-13.1 5.4-12.9-3.6-89.6-4.5-38.2-8.2-70-8.2-70.7 0-.6-.3-1.2-.7-1.1-.5 0-12 5.3-25.8 11.8z"/></svg>